<svg xmlns="http://www.w3.org/2000/svg" viewBox="0 0 22 22" width="352" height="352"><rect width="22" height="22" rx="5" fill="#161616"></rect><g fill="#fbfbfa" shape-rendering="crispEdges"><rect x="17" y="5" width="1" height="1"></rect><rect x="14" y="6" width="1" height="1"></rect><rect x="15" y="6" width="1" height="1"></rect><rect x="16" y="6" width="1" height="1"></rect><rect x="17" y="6" width="1" height="1"></rect><rect x="12" y="7" width="1" height="1"></rect><rect x="13" y="7" width="1" height="1"></rect><rect x="14" y="7" width="1" height="1"></rect><rect x="15" y="7" width="1" height="1"></rect><rect x="16" y="7" width="1" height="1"></rect><rect x="9" y="8" width="1" height="1"></rect><rect x="10" y="8" width="1" height="1"></rect><rect x="11" y="8" width="1" height="1"></rect><rect x="12" y="8" width="1" height="1"></rect><rect x="13" y="8" width="1" height="1"></rect><rect x="14" y="8" width="1" height="1"></rect><rect x="15" y="8" width="1" height="1"></rect><rect x="16" y="8" width="1" height="1"></rect><rect x="7" y="9" width="1" height="1"></rect><rect x="8" y="9" width="1" height="1"></rect><rect x="9" y="9" width="1" height="1"></rect><rect x="10" y="9" width="1" height="1"></rect><rect x="11" y="9" width="1" height="1"></rect><rect x="12" y="9" width="1" height="1"></rect><rect x="13" y="9" width="1" height="1"></rect><rect x="14" y="9" width="1" height="1"></rect><rect x="15" y="9" width="1" height="1"></rect><rect x="4" y="10" width="1" height="1"></rect><rect x="5" y="10" width="1" height="1"></rect><rect x="6" y="10" width="1" height="1"></rect><rect x="7" y="10" width="1" height="1"></rect><rect x="8" y="10" width="1" height="1"></rect><rect x="9" y="10" width="1" height="1"></rect><rect x="10" y="10" width="1" height="1"></rect><rect x="11" y="10" width="1" height="1"></rect><rect x="12" y="10" width="1" height="1"></rect><rect x="13" y="10" width="1" height="1"></rect><rect x="14" y="10" width="1" height="1"></rect><rect x="15" y="10" width="1" height="1"></rect><rect x="11" y="11" width="1" height="1"></rect><rect x="12" y="11" width="1" height="1"></rect><rect x="13" y="11" width="1" height="1"></rect><rect x="14" y="11" width="1" height="1"></rect><rect x="15" y="11" width="1" height="1"></rect><rect x="11" y="12" width="1" height="1"></rect><rect x="12" y="12" width="1" height="1"></rect><rect x="13" y="12" width="1" height="1"></rect><rect x="14" y="12" width="1" height="1"></rect><rect x="11" y="13" width="1" height="1"></rect><rect x="12" y="13" width="1" height="1"></rect><rect x="13" y="13" width="1" height="1"></rect><rect x="14" y="13" width="1" height="1"></rect><rect x="11" y="14" width="1" height="1"></rect><rect x="12" y="14" width="1" height="1"></rect><rect x="13" y="14" width="1" height="1"></rect><rect x="14" y="14" width="1" height="1"></rect><rect x="12" y="15" width="1" height="1"></rect><rect x="13" y="15" width="1" height="1"></rect><rect x="12" y="16" width="1" height="1"></rect><rect x="13" y="16" width="1" height="1"></rect><rect x="12" y="17" width="1" height="1"></rect></g></svg>